<?xml version="1.0" encoding="UTF-8"?>
<svg id="Layer_1" data-name="Layer 1" xmlns="http://www.w3.org/2000/svg" viewBox="0 0 302.21 212.34">
  <defs>
    <style>
      .cls-1 {
        fill: #112349;
      }
    </style>
  </defs>
  <g>
    <path class="cls-1" d="M58.63,80.39l6.32-37.01h-3.72c-1.78,0-3.2.06-4.28.19-1.08.12-1.89.38-2.45.77-.56.39-.96.96-1.21,1.7l-1.74,5.89h-3.53l2.17-12.21,37.88.19-3.6,12.02h-3.41l.56-5.89c.08-.74-.11-1.31-.59-1.7-.48-.39-1.26-.65-2.36-.77-1.1-.12-2.53-.19-4.31-.19h-3.72l-6.26,36.89c-.17.91.23,1.52,1.18,1.83.95.31,2.19.47,3.72.47h.99l-.56,2.91h-18.29l.56-2.91h.99c1.53,0,2.81-.16,3.84-.47,1.03-.31,1.63-.88,1.8-1.7Z"/>
    <path class="cls-1" d="M81.63,45.68c.12-.62.03-1.09-.28-1.43-.31-.33-.8-.6-1.46-.81-.66-.21-1.53-.39-2.6-.56l-.68-.12.49-2.85h10.97l-7.81,45.56h-5.52l6.88-39.8ZM100.66,77.76c-.12.64-.22,1.19-.28,1.64-.06.46-.09.83-.09,1.12,0,.54.16.95.5,1.24.33.29.83.43,1.49.43.62,0,1.24-.09,1.86-.28s1.19-.38,1.7-.59c.52-.21.88-.35,1.08-.43l-.62,3.22c-.41.29-.92.58-1.52.87-.6.29-1.26.52-1.98.68-.72.16-1.5.25-2.32.25-1.12,0-2.11-.18-2.97-.53-.87-.35-1.55-.89-2.05-1.61-.5-.72-.74-1.62-.74-2.7,0-.54.03-1.09.09-1.64.06-.56.15-1.24.28-2.05s.31-1.81.56-3.01l1.74-8.8c.21-1.07.36-1.95.47-2.63.1-.68.16-1.27.16-1.77,0-1.2-.28-2.15-.84-2.85-.56-.7-1.5-1.05-2.82-1.05s-2.65.37-3.97,1.12c-1.32.74-2.66,1.87-4,3.38-1.34,1.51-2.76,3.42-4.25,5.73l-1.49-1.55c1.57-2.56,3.13-4.78,4.68-6.66s3.19-3.34,4.93-4.37c1.74-1.03,3.66-1.55,5.76-1.55,1.53,0,2.86.29,4,.87s2.01,1.41,2.63,2.48c.62,1.08.93,2.38.93,3.91,0,.54-.04,1.21-.12,2.01-.08.81-.23,1.71-.43,2.7l-1.92,10.17c-.17.87-.31,1.62-.43,2.26Z"/>
    <path class="cls-1" d="M120.37,86.22c-2.48,0-4.71-.54-6.7-1.61-1.98-1.07-3.55-2.66-4.71-4.74-1.16-2.09-1.74-4.64-1.74-7.66,0-2.31.39-4.59,1.18-6.82s1.91-4.26,3.38-6.07,3.24-3.26,5.33-4.34c2.09-1.07,4.41-1.61,6.97-1.61,2.07,0,3.84.34,5.33,1.02s2.62,1.63,3.41,2.85c.78,1.22,1.18,2.61,1.18,4.18,0,1.9-.48,3.59-1.43,5.05-.95,1.47-2.38,2.71-4.28,3.72-1.9,1.01-4.28,1.77-7.13,2.26s-6.18.74-9.98.74l.5-3.16c3.22-.04,5.92-.26,8.09-.65s3.91-.95,5.21-1.67c1.3-.72,2.23-1.61,2.79-2.67.56-1.05.84-2.26.84-3.63,0-.91-.19-1.7-.56-2.39s-.91-1.21-1.61-1.58c-.7-.37-1.59-.56-2.67-.56-1.49,0-2.88.4-4.18,1.21-1.3.81-2.46,1.93-3.47,3.38-1.01,1.45-1.81,3.14-2.39,5.08-.58,1.94-.87,4.07-.87,6.39,0,2.03.3,3.77.9,5.24.6,1.47,1.48,2.58,2.63,3.35,1.16.76,2.58,1.15,4.28,1.15,1.53,0,2.86-.31,4-.93,1.14-.62,2.12-1.43,2.94-2.42.83-.99,1.51-2.05,2.05-3.16l2.85,2.17c-.78,1.7-1.79,3.13-3.01,4.31s-2.6,2.07-4.15,2.67-3.21.9-4.99.9Z"/>
  </g>
  <g>
    <path class="cls-1" d="M155.99,105.09c-8.56,0-16.32,3.45-21.98,9.03v-20.54h-.43v-.15h-18.56v9.34h9.65v55.61h-6.69v9.34h18.56v-6.8c5.35,4.25,12.11,6.8,19.45,6.8,17.27,0,31.32-14.05,31.32-31.32s-14.05-31.32-31.32-31.32ZM155.99,158.38c-12.12,0-21.98-9.86-21.98-21.98s9.86-21.98,21.98-21.98,21.98,9.86,21.98,21.98-9.86,21.98-21.98,21.98Z"/>
    <polygon class="cls-1" points="112.19 93.43 50.9 93.43 50.9 94.77 50.8 94.77 50.8 109.75 60.14 109.75 60.14 102.77 88.88 102.77 88.88 158.38 83.31 158.38 83.31 167.72 101.87 167.72 101.87 158.38 98.22 158.38 98.22 102.77 102.91 102.77 102.91 109.75 112.25 109.75 112.25 94.77 112.19 94.77 112.19 93.43"/>
    <polygon class="cls-1" points="252.44 152.37 243.1 152.37 243.1 158.38 200.16 158.38 200.16 93.58 200.1 93.58 200.1 93.43 181.55 93.43 181.55 102.77 190.83 102.77 190.83 158.38 190.83 167.36 190.83 167.72 252.12 167.72 252.12 167.36 252.44 167.36 252.44 152.37"/>
  </g>
</svg>