<svg width="2686" height="1457" viewBox="0 0 2686 1457" fill="none" xmlns="http://www.w3.org/2000/svg">
<g clip-path="url(#clip0_150_21)">
<path d="M371.906 430.406L411.996 186.217H388.399C377.108 186.217 368.1 186.613 361.249 187.471C354.399 188.263 349.261 189.978 345.708 192.551C342.156 195.124 339.619 198.885 338.033 203.768L326.996 242.629H304.604L318.369 162.069L558.652 163.322L535.816 242.629H514.186L517.738 203.768C518.245 198.885 517.04 195.124 513.995 192.551C510.951 189.978 506.003 188.263 499.025 187.471C492.048 186.679 482.977 186.217 471.686 186.217H448.089L408.38 429.614C407.302 435.618 409.839 439.643 415.865 441.688C421.891 443.734 429.757 444.789 439.462 444.789H445.742L442.19 463.989H326.171L329.723 444.789H336.003C345.708 444.789 353.828 443.734 360.361 441.688C366.895 439.643 370.701 435.882 371.779 430.472L371.906 430.406Z" fill="#112349"/>
<path d="M517.801 201.392C518.563 197.302 517.992 194.201 516.025 191.957C514.059 189.78 510.951 187.999 506.764 186.613C502.577 185.228 497.059 184.04 490.272 182.918L485.958 182.127L489.066 163.323H558.652L509.111 463.923H474.096L517.738 201.326L517.801 201.392ZM638.514 413.053C637.753 417.276 637.118 420.905 636.738 423.874C636.357 426.909 636.167 429.35 636.167 431.264C636.167 434.826 637.182 437.532 639.338 439.445C641.432 441.358 644.603 442.282 648.79 442.282C652.723 442.282 656.656 441.688 660.588 440.435C664.521 439.181 668.137 437.927 671.372 436.542C674.67 435.156 676.954 434.233 678.223 433.705L674.29 454.95C671.689 456.863 668.454 458.777 664.648 460.69C660.842 462.604 656.656 464.121 652.088 465.177C647.521 466.233 642.574 466.826 637.372 466.826C630.268 466.826 623.988 465.639 618.533 463.329C613.014 461.02 608.7 457.457 605.529 452.707C602.357 447.956 600.835 442.018 600.835 434.892C600.835 431.33 601.025 427.701 601.406 424.072C601.786 420.377 602.357 415.89 603.182 410.546C604.006 405.202 605.148 398.604 606.734 390.686L617.771 332.625C619.103 325.565 620.055 319.759 620.753 315.272C621.387 310.786 621.768 306.893 621.768 303.594C621.768 295.677 619.991 289.409 616.439 284.79C612.887 280.171 606.924 277.862 598.551 277.862C590.178 277.862 581.742 280.303 573.368 285.252C564.995 290.134 556.495 297.59 547.995 307.553C539.495 317.516 530.488 330.118 521.036 345.359L511.585 335.132C521.544 318.241 531.439 303.594 541.271 291.19C551.104 278.786 561.506 269.153 572.544 262.357C583.581 255.561 595.76 252.13 609.081 252.13C618.786 252.13 627.223 254.044 634.454 257.871C641.685 261.697 647.204 267.174 651.137 274.233C655.07 281.359 657.036 289.936 657.036 300.031C657.036 303.594 656.782 308.015 656.275 313.293C655.767 318.637 654.816 324.575 653.547 331.107L641.368 398.208C640.29 403.948 639.402 408.897 638.641 413.119L638.514 413.053Z" fill="#112349"/>
<path d="M763.54 468.872C747.808 468.872 733.663 465.309 721.04 458.249C708.48 451.189 698.521 440.699 691.163 426.975C683.805 413.185 680.125 396.361 680.125 376.435C680.125 361.194 682.599 346.151 687.611 331.437C692.622 316.724 699.726 303.33 709.051 291.388C718.375 279.446 729.603 269.879 742.86 262.753C756.118 255.693 770.834 252.13 787.073 252.13C800.204 252.13 811.431 254.374 820.883 258.86C830.334 263.347 837.502 269.615 842.513 277.664C847.461 285.714 849.998 294.885 849.998 305.244C849.998 317.78 846.954 328.93 840.927 338.563C834.901 348.262 825.83 356.443 813.778 363.107C801.726 369.771 786.629 374.785 768.551 378.018C750.472 381.251 729.349 382.901 705.245 382.901L708.416 362.052C728.842 361.788 745.969 360.336 759.734 357.763C773.498 355.19 784.536 351.495 792.782 346.744C801.028 341.994 806.927 336.122 810.48 329.128C814.032 322.2 815.808 314.217 815.808 305.178C815.808 299.173 814.603 293.961 812.256 289.409C809.909 284.856 806.483 281.425 802.043 278.984C797.603 276.543 791.957 275.289 785.107 275.289C775.655 275.289 766.838 277.928 758.592 283.273C750.345 288.617 742.987 296.006 736.581 305.573C730.174 315.14 725.099 326.291 721.42 339.091C717.741 351.891 715.902 365.944 715.902 381.251C715.902 394.645 717.805 406.126 721.61 415.825C725.416 425.523 730.999 432.847 738.293 437.928C745.651 442.942 754.659 445.515 765.442 445.515C775.148 445.515 783.584 443.47 790.816 439.379C798.047 435.288 804.263 429.944 809.465 423.412C814.73 416.88 819.043 409.886 822.469 402.563L840.547 416.88C835.599 428.097 829.192 437.532 821.454 445.317C813.715 453.103 804.961 458.975 795.129 462.934C785.297 466.892 774.767 468.872 763.476 468.872H763.54Z" fill="#112349"/>
<path d="M989.487 593.374C935.189 593.374 885.965 616.137 850.062 652.953V517.432H847.334V516.443H729.603V578.067H790.816V944.977H748.379V1006.6H866.11V961.735C900.047 989.777 942.927 1006.6 989.487 1006.6C1099.04 1006.6 1188.16 913.901 1188.16 799.955C1188.16 686.009 1099.04 593.308 989.487 593.308V593.374ZM989.487 944.977C912.606 944.977 850.062 879.921 850.062 799.955C850.062 719.988 912.606 654.933 989.487 654.933C1066.37 654.933 1128.91 719.988 1128.91 799.955C1128.91 879.921 1066.37 944.977 989.487 944.977Z" fill="#112349"/>
<path d="M711.652 516.443H322.873V525.284H322.238V624.12H381.484V578.067H563.79V944.977H528.458V1006.6H646.189V944.977H623.036V578.067H652.786V624.12H712.032V525.284H711.652V516.443Z" fill="#112349"/>
<path d="M1601.3 905.323H1542.05V944.977H1269.67V517.432H1269.29V516.443H1151.62V578.067H1210.49V944.977V1004.23V1006.6H1599.27V1004.23H1601.3V905.323Z" fill="#112349"/>
<path d="M842.781 1094.79L806.258 1411H703.523C694.148 1362.43 685.88 1307.22 678.719 1245.38C675.464 1271.81 667.846 1327.02 655.867 1411H553.719L517 1094.79H596.883L605.281 1205.14L613.875 1311.59C616.87 1256.51 624.422 1184.24 636.531 1094.79H722.078C723.25 1104.03 726.245 1138.8 731.062 1199.09L740.047 1319.2C744.604 1242.77 752.221 1167.97 762.898 1094.79H842.781ZM1035.36 1242.84V1306.31C1035.36 1329.62 1034.19 1346.74 1031.84 1357.68C1029.5 1368.49 1024.49 1378.64 1016.8 1388.15C1009.12 1397.52 999.227 1404.49 987.117 1409.05C975.138 1413.47 961.336 1415.69 945.711 1415.69C928.263 1415.69 913.484 1413.8 901.375 1410.02C889.266 1406.12 879.826 1400.32 873.055 1392.64C866.414 1384.83 861.661 1375.45 858.797 1364.52C855.932 1353.45 854.5 1336.91 854.5 1314.91V1248.5C854.5 1224.41 857.104 1205.6 862.312 1192.05C867.521 1178.51 876.896 1167.64 890.438 1159.44C903.979 1151.23 921.297 1147.13 942.391 1147.13C960.099 1147.13 975.268 1149.8 987.898 1155.14C1000.66 1160.35 1010.49 1167.18 1017.39 1175.65C1024.29 1184.11 1028.98 1192.84 1031.45 1201.82C1034.06 1210.8 1035.36 1224.48 1035.36 1242.84ZM956.453 1223.3C956.453 1210.02 955.737 1201.69 954.305 1198.3C952.872 1194.79 949.812 1193.03 945.125 1193.03C940.438 1193.03 937.312 1194.79 935.75 1198.3C934.188 1201.69 933.406 1210.02 933.406 1223.3V1340.3C933.406 1352.54 934.188 1360.54 935.75 1364.32C937.312 1367.97 940.372 1369.79 944.93 1369.79C949.617 1369.79 952.677 1368.1 954.109 1364.71C955.672 1361.33 956.453 1354.03 956.453 1342.84V1223.3ZM1140.44 1151.82L1137.31 1185.8C1148.77 1161.46 1165.37 1148.57 1187.12 1147.13V1238.34C1172.66 1238.34 1162.05 1240.3 1155.28 1244.2C1148.51 1248.11 1144.34 1253.58 1142.78 1260.61C1141.22 1267.51 1140.44 1283.53 1140.44 1308.66V1411H1061.53V1151.82H1140.44ZM1374.81 1151.82L1342.78 1255.14L1384.38 1411H1308.41L1283.8 1298.11V1411H1204.89V1094.79H1283.8V1227.6L1308.41 1151.82H1374.81ZM1557.43 1234.63H1487.51V1220.57C1487.51 1208.59 1486.79 1201.04 1485.36 1197.91C1484.06 1194.66 1480.67 1193.03 1475.2 1193.03C1470.78 1193.03 1467.46 1194.53 1465.24 1197.52C1463.03 1200.39 1461.92 1204.75 1461.92 1210.61C1461.92 1218.55 1462.44 1224.41 1463.48 1228.19C1464.66 1231.83 1467.98 1235.87 1473.45 1240.3C1479.04 1244.72 1490.44 1251.17 1507.62 1259.63C1530.54 1270.83 1545.58 1281.38 1552.74 1291.27C1559.9 1301.17 1563.48 1315.56 1563.48 1334.44C1563.48 1355.53 1560.75 1371.48 1555.28 1382.29C1549.81 1392.97 1540.63 1401.23 1527.74 1407.09C1514.98 1412.82 1499.55 1415.69 1481.45 1415.69C1461.4 1415.69 1444.21 1412.56 1429.89 1406.31C1415.7 1400.06 1405.93 1391.6 1400.59 1380.92C1395.26 1370.24 1392.59 1354.1 1392.59 1332.48V1319.98H1462.51V1336.39C1462.51 1350.32 1463.35 1359.37 1465.05 1363.54C1466.87 1367.71 1470.39 1369.79 1475.59 1369.79C1481.19 1369.79 1485.1 1368.42 1487.31 1365.69C1489.53 1362.82 1490.63 1356.9 1490.63 1347.91C1490.63 1335.54 1489.2 1327.8 1486.34 1324.67C1483.34 1321.55 1468.04 1312.3 1440.44 1296.94C1417.26 1283.92 1403.13 1272.13 1398.05 1261.59C1392.98 1250.91 1390.44 1238.28 1390.44 1223.7C1390.44 1202.99 1393.17 1187.76 1398.64 1177.99C1404.11 1168.1 1413.35 1160.48 1426.38 1155.14C1439.53 1149.8 1454.76 1147.13 1472.08 1147.13C1489.27 1147.13 1503.85 1149.35 1515.83 1153.77C1527.94 1158.07 1537.18 1163.8 1543.56 1170.96C1550.07 1178.12 1553.98 1184.76 1555.28 1190.88C1556.71 1197 1557.43 1206.57 1557.43 1219.59V1234.63ZM1664.85 1151.82L1663.48 1174.67C1670.52 1165.43 1678.26 1158.53 1686.73 1153.97C1695.19 1149.41 1704.43 1147.13 1714.46 1147.13C1726.7 1147.13 1737.25 1150.45 1746.1 1157.09C1755.09 1163.6 1760.68 1171.16 1762.9 1179.75C1765.11 1188.34 1766.22 1202.93 1766.22 1223.5V1332.68C1766.22 1356.25 1764.79 1373.04 1761.92 1383.07C1759.19 1392.97 1753.46 1400.91 1744.73 1406.9C1736.14 1412.76 1725.72 1415.69 1713.48 1415.69C1703.72 1415.69 1694.67 1413.41 1686.34 1408.85C1678 1404.29 1670.39 1397.52 1663.48 1388.54V1447.91H1584.58V1151.82H1664.85ZM1687.31 1227.21C1687.31 1211.2 1686.73 1201.49 1685.55 1198.11C1684.38 1194.72 1681.13 1193.03 1675.79 1193.03C1670.58 1193.03 1667.2 1194.98 1665.63 1198.89C1664.2 1202.8 1663.48 1212.24 1663.48 1227.21V1334.63C1663.48 1350.26 1664.27 1360.02 1665.83 1363.93C1667.39 1367.84 1670.78 1369.79 1675.98 1369.79C1681.06 1369.79 1684.19 1368.03 1685.36 1364.52C1686.66 1360.87 1687.31 1352.15 1687.31 1338.34V1227.21ZM1862.9 1252.21H1788.88V1234.83C1788.88 1214.78 1791.15 1199.35 1795.71 1188.54C1800.4 1177.6 1809.71 1167.97 1823.64 1159.63C1837.57 1151.3 1855.67 1147.13 1877.94 1147.13C1904.63 1147.13 1924.75 1151.89 1938.29 1161.39C1951.83 1170.77 1959.97 1182.35 1962.7 1196.16C1965.44 1209.83 1966.8 1238.08 1966.8 1280.92V1411H1890.05V1387.95C1885.23 1397.2 1878.98 1404.16 1871.3 1408.85C1863.74 1413.41 1854.7 1415.69 1844.15 1415.69C1830.35 1415.69 1817.65 1411.85 1806.06 1404.16C1794.6 1396.35 1788.88 1379.36 1788.88 1353.19V1331.9C1788.88 1312.5 1791.93 1299.28 1798.05 1292.25C1804.17 1285.22 1819.34 1277.02 1843.56 1267.64C1869.47 1257.48 1883.34 1250.65 1885.16 1247.13C1886.99 1243.62 1887.9 1236.46 1887.9 1225.65C1887.9 1212.11 1886.86 1203.32 1884.77 1199.28C1882.82 1195.11 1879.5 1193.03 1874.81 1193.03C1869.47 1193.03 1866.15 1194.79 1864.85 1198.3C1863.55 1201.69 1862.9 1210.61 1862.9 1225.06V1252.21ZM1887.9 1287.76C1875.27 1297 1867.91 1304.75 1865.83 1311C1863.88 1317.25 1862.9 1326.23 1862.9 1337.95C1862.9 1351.36 1863.74 1360.02 1865.44 1363.93C1867.26 1367.84 1870.78 1369.79 1875.98 1369.79C1880.93 1369.79 1884.12 1368.29 1885.55 1365.3C1887.12 1362.17 1887.9 1354.1 1887.9 1341.08V1287.76ZM2168.37 1249.67H2093.95V1219.79C2093.95 1209.37 2093.11 1202.34 2091.41 1198.7C2089.72 1194.92 2086.6 1193.03 2082.04 1193.03C2077.48 1193.03 2074.42 1194.66 2072.86 1197.91C2071.3 1201.17 2070.52 1208.46 2070.52 1219.79V1342.05C2070.52 1351.3 2071.69 1358.27 2074.03 1362.95C2076.38 1367.51 2079.83 1369.79 2084.38 1369.79C2089.72 1369.79 2093.3 1367.38 2095.12 1362.56C2097.08 1357.74 2098.05 1348.63 2098.05 1335.22V1304.36H2168.37C2168.24 1325.06 2167.46 1340.62 2166.02 1351.04C2164.72 1361.33 2160.36 1371.94 2152.94 1382.88C2145.65 1393.68 2136.08 1401.89 2124.23 1407.48C2112.38 1412.95 2097.73 1415.69 2080.28 1415.69C2058.02 1415.69 2040.37 1411.91 2027.35 1404.36C2014.33 1396.68 2005.09 1386 1999.62 1372.33C1994.28 1358.53 1991.61 1338.99 1991.61 1313.73V1240.1C1991.61 1218.1 1993.82 1201.49 1998.25 1190.3C2002.68 1179.1 2012.12 1169.14 2026.57 1160.41C2041.02 1151.56 2058.6 1147.13 2079.3 1147.13C2099.88 1147.13 2117.46 1151.49 2132.04 1160.22C2146.62 1168.94 2156.32 1179.95 2161.14 1193.23C2165.96 1206.51 2168.37 1225.32 2168.37 1249.67ZM2370.71 1286H2268.56V1342.05C2268.56 1353.77 2269.41 1361.33 2271.1 1364.71C2272.79 1368.1 2276.05 1369.79 2280.87 1369.79C2286.86 1369.79 2290.83 1367.58 2292.78 1363.15C2294.86 1358.59 2295.91 1349.87 2295.91 1336.98V1302.8H2370.71V1321.94C2370.71 1337.95 2369.67 1350.26 2367.59 1358.85C2365.63 1367.45 2360.95 1376.62 2353.52 1386.39C2346.1 1396.16 2336.66 1403.51 2325.2 1408.46C2313.88 1413.28 2299.62 1415.69 2282.43 1415.69C2265.76 1415.69 2251.05 1413.28 2238.29 1408.46C2225.53 1403.64 2215.57 1397.07 2208.41 1388.73C2201.38 1380.27 2196.49 1371.03 2193.76 1361C2191.02 1350.84 2189.66 1336.13 2189.66 1316.86V1241.27C2189.66 1218.62 2192.72 1200.78 2198.84 1187.76C2204.96 1174.61 2214.98 1164.58 2228.91 1157.68C2242.85 1150.65 2258.86 1147.13 2276.96 1147.13C2299.1 1147.13 2317.33 1151.36 2331.65 1159.83C2346.1 1168.16 2356.19 1179.29 2361.92 1193.23C2367.78 1207.03 2370.71 1226.49 2370.71 1251.62V1286ZM2291.61 1243.81V1224.87C2291.61 1211.46 2290.89 1202.8 2289.46 1198.89C2288.03 1194.98 2285.1 1193.03 2280.67 1193.03C2275.2 1193.03 2271.82 1194.72 2270.52 1198.11C2269.21 1201.36 2268.56 1210.28 2268.56 1224.87V1243.81H2291.61Z" fill="black"/>
</g>
<defs>
<clipPath id="clip0_150_21">
<rect width="2686" height="1457" fill="white"/>
</clipPath>
</defs>
</svg>
